@startuml UML API DIAGRAM
left to right direction
package "RestaurantReservation"{
    class "<<Application>>\nRestaurantReservationService" as RestaurantReservationService{}

    ' Restaurant 
    class "<<Resource>>\nRestaurants" as ResourceRestaurants{
        <<GET>> +getRestaurants():Restaurant
        <<POST>> +createRestaurant():Restaurant
    }

    class "<<Resource>>\nRestaurant" as ResourceRestaurant {
        <<GET>> +getRestaurant(): Restaurant
        <<PUT>> +updateRestaurant(): Restaurant
        <<DELETE>> +deleteRestaurant(): void
    }

    class "<<Representation>>\nRestaurant" as RepresentationRestaurant {
        -name
        -address
        -district
        -province
        -postalcode
        -telNo
        -openTime
        -closeTime
        -maxCapacity
    }
    
    ' Reservation 
    class "<<Resource>>\nReservations" as ResourceReservations{
        <<GET>> +getReservations():Reservation
        <<POST>> +createReservation():Reservation
    }

    class "<<Resource>>\nReservation" as ResourceReservation {
        <<GET>> +getReservation(): Reservation
        <<PUT>> +updateReservation(): Reservation
        <<DELETE>> +deleteReservation(): void
    }

    class "<<Representation>>\nReservation" as RepresentationReservation {
        -reserveDate
        -user
        -restaurant
        -noOfTable
    }

    ' User
    class "<<Resource>>\nAuth" as ResourceAuth{
        
    }

    class "<<Resource>>\nRegister" as ResourceRegister{
        <<POST>> +register(): Token
    }

    class "<<Resource>>\nLogin" as ResourceLogin{
        <<POST>> +login(): Token
    }

    class "<<Resource>>\nLogout" as ResourceLogout{
        <<GET>> +logout(): void
    }

    class "<<Resource>>\nUser" as ResourceUser{
        <<GET>> +getMe(): User
    }

    class "<<Representation>>\nUser" as RepresentationUser {
        -name
        -telNo
        -email
        -password
        -role
    }
    

}

RestaurantReservationService ..> ResourceRestaurants:"/restaurants\n<<Path>>"
ResourceRestaurants ..> ResourceRestaurant: "/{restaurantId}\n<<Path>>"
ResourceRestaurant ..> RepresentationRestaurant: "<<use>>"

RestaurantReservationService ..> ResourceReservations:"/reservations\n<<Path>>"
ResourceReservations ..> ResourceReservation: "/{reservationId}\n<<Path>>"
ResourceReservation ..> RepresentationReservation: "<<use>>"

RestaurantReservationService ..> ResourceAuth:"/auth\n<<Path>>"
ResourceAuth ..> ResourceRegister:"/register\n<<Path>>"
ResourceAuth ..> ResourceLogin:"/login\n<<Path>>"
ResourceAuth ..> ResourceUser:"/getMe\n<<Path>>"
ResourceAuth ..> ResourceLogout:"/logout\n<<Path>>"

ResourceRegister ..> RepresentationUser:"<<use>>"
ResourceLogin ..> RepresentationUser: "<<use>>"
ResourceUser ..> RepresentationUser: "<<use>>"
ResourceLogout ..> RepresentationUser: "<<use>>"
@enduml